<svg xmlns="http://www.w3.org/2000/svg" xmlns:xlink="http://www.w3.org/1999/xlink" viewBox="0 0 26 26" fill="#FFFFFF">
  <path d="M4.5,21.3c0-1.8,2.7-3.4,5.7-4c0,0,0.9-0.5,0.7-1.4c-0.9-1.1-1.1-2.3-1.1-2.3c-0.2-0.1-0.4-0.2-0.5-0.4c-0.3-0.4-0.6-1.4-0.6-2.1c0.1-0.7,0.3-0.5,0.3-0.6C8.3,9.1,8.6,7.2,9.3,5.9c1.5-2.7,4.8-1.9,5.3-0.9c3.1-0.6,3,4.3,2.6,5.6c0,0,0.3,0.1,0.2,1.2c-0.1,1.2-1.1,2-1.1,2c0,0.3-0.4,1.3-1.1,2.2c-0.5,1.1,0.6,1.4,0.6,1.4c2.9,0.6,5.6,2.2,5.6,4c0,0.1-2.7,3.7-8.5,3.7S4.5,21.5,4.5,21.3z" fill="#FFFFFF" />
  <path fill="none" stroke="#FFFFFF" stroke-width="2" d="M13 1A12 12 0 1 0 13 25A12 12 0 1 0 13 1Z" />
</svg>