<svg xmlns="http://www.w3.org/2000/svg" xmlns:xlink="http://www.w3.org/1999/xlink" width="26" height="26" viewBox="0 0 26 26" fill="#FFFFFF">
  <path d="M25,1H1C0.447,1,0,1.448,0,2v3h26V2C26,1.448,25.553,1,25,1z" fill="#FFFFFF" />
  <path fill="none" stroke="#FFFFFF" stroke-linecap="round" stroke-linejoin="round" stroke-width="2" d="M1 4H25V24H1z" />
  <path d="M5.583 12.979c-.147 0-.22-.073-.22-.22l.005-4.177H4.382c-.084 0-.147-.01-.188-.031C4.152 8.529 4.131 8.477 4.131 8.393V7.879c0-.077.01-.145.032-.204.02-.059.077-.11.167-.152l.923-.388c.119-.056.229-.091.33-.105.101-.014.212-.021.33-.021h.838c.16 0 .241.081.241.241L7 12.759c0 .077-.013.133-.037.168-.025.035-.083.052-.173.052H5.583zM19.583 12.979c-.147 0-.22-.073-.22-.22l.005-4.177h-.985c-.084 0-.147-.01-.188-.031-.042-.021-.063-.073-.063-.157V7.879c0-.077.01-.145.032-.204.02-.059.077-.11.167-.152l.923-.388c.119-.056.229-.091.33-.105.101-.014.212-.021.33-.021h.838c.16 0 .241.081.241.241L21 12.759c0 .077-.013.133-.037.168-.025.035-.083.052-.173.052H19.583zM12.959 13.063c-.372 0-.691-.049-.958-.148-.267-.099-.489-.233-.666-.401-.176-.168-.316-.36-.418-.576-.103-.216-.179-.441-.229-.675-.051-.234-.084-.467-.1-.698-.015-.231-.022-.448-.022-.652 0-.132.007-.298.022-.499.015-.201.05-.413.104-.635.053-.222.133-.444.238-.666.105-.222.246-.42.423-.594.176-.174.396-.316.657-.427.261-.111.577-.167.949-.167.552 0 .992.096 1.318.288.327.192.576.434.747.724.171.291.282.612.333.963.051.351.076.688.076 1.012 0 .18-.007.382-.022.607-.015.225-.051.455-.108.689s-.139.462-.248.684c-.108.222-.253.42-.436.594-.183.174-.409.314-.679.419C13.67 13.01 13.343 13.063 12.959 13.063zM12.959 8.122c-.198 0-.358.048-.481.145-.123.097-.22.228-.293.394-.072.166-.119.363-.144.592-.024.229-.036.476-.036.741 0 .253.012.494.036.723.024.229.07.428.139.597.069.169.167.303.293.402.126.1.288.149.486.149.21 0 .382-.044.518-.131.135-.088.239-.213.315-.375.075-.163.127-.36.157-.592.03-.232.045-.49.045-.773 0-.296-.013-.559-.04-.791-.027-.232-.078-.428-.153-.588-.075-.16-.18-.282-.315-.366S13.175 8.122 12.959 8.122z" fill="#FFFFFF" />
  <g fill="#FFFFFF">
    <path d="M12.583 20.979c-.147 0-.22-.073-.22-.22l.005-4.177h-.985c-.084 0-.147-.01-.188-.031-.042-.021-.063-.073-.063-.157v-.513c0-.077.01-.145.032-.204.02-.059.077-.11.167-.152l.923-.388c.119-.056.229-.091.33-.105.101-.014.212-.021.33-.021h.838c.16 0 .241.081.241.241L14 20.759c0 .077-.013.133-.037.168-.025.035-.083.052-.173.052H12.583zM5.959 21.063c-.372 0-.691-.049-.958-.148-.267-.099-.489-.233-.666-.401-.176-.168-.316-.36-.418-.576-.103-.216-.179-.441-.229-.675-.051-.234-.084-.467-.1-.698-.015-.231-.022-.448-.022-.652 0-.132.007-.298.022-.499.015-.201.05-.413.104-.635.053-.222.133-.444.238-.666.105-.222.246-.42.423-.594.176-.174.396-.316.657-.427s.577-.167.949-.167c.552 0 .992.096 1.318.288.327.192.576.434.747.724.171.291.282.612.333.963.051.351.076.688.076 1.012 0 .18-.007.382-.022.607-.015.225-.051.455-.108.689s-.139.462-.248.684c-.108.222-.253.42-.436.594-.183.174-.409.314-.679.419C6.67 21.01 6.343 21.063 5.959 21.063zM5.959 16.122c-.198 0-.358.048-.481.145-.123.097-.22.228-.293.394-.072.166-.119.363-.144.592-.024.229-.036.476-.036.741 0 .253.012.494.036.723.024.229.07.428.139.597.069.169.167.303.293.402.126.1.288.149.486.149.21 0 .382-.044.518-.131.135-.088.239-.213.315-.375.075-.163.127-.36.157-.592.03-.232.045-.49.045-.773 0-.296-.013-.559-.04-.791s-.078-.428-.153-.588c-.075-.16-.18-.282-.315-.366C6.351 16.165 6.175 16.122 5.959 16.122zM19.959 21.063c-.372 0-.691-.049-.958-.148-.267-.099-.489-.233-.666-.401-.176-.168-.316-.36-.418-.576-.103-.216-.179-.441-.229-.675-.051-.234-.084-.467-.1-.698-.015-.231-.022-.448-.022-.652 0-.132.007-.298.022-.499.015-.201.05-.413.104-.635.053-.222.133-.444.238-.666.105-.222.246-.42.423-.594.176-.174.396-.316.657-.427.261-.111.577-.167.949-.167.552 0 .992.096 1.318.288.327.192.576.434.747.724.171.291.282.612.333.963.051.351.076.688.076 1.012 0 .18-.007.382-.022.607-.015.225-.051.455-.108.689-.057.234-.139.462-.248.684-.108.222-.253.42-.436.594-.183.174-.409.314-.679.419C20.67 21.01 20.343 21.063 19.959 21.063zM19.959 16.122c-.198 0-.358.048-.481.145-.123.097-.22.228-.293.394-.072.166-.119.363-.144.592-.024.229-.036.476-.036.741 0 .253.012.494.036.723.024.229.07.428.139.597.069.169.167.303.293.402.126.1.288.149.486.149.21 0 .382-.044.518-.131.135-.088.239-.213.315-.375.075-.163.127-.36.157-.592.03-.232.045-.49.045-.773 0-.296-.013-.559-.04-.791-.027-.232-.078-.428-.153-.588-.075-.16-.18-.282-.315-.366C20.351 16.165 20.175 16.122 19.959 16.122z" fill="#FFFFFF" />
  </g>
</svg>