<svg xmlns="http://www.w3.org/2000/svg" xmlns:xlink="http://www.w3.org/1999/xlink" viewBox="0 0 50 50" fill="#FFFFFF">
  <path fill="none" stroke="#FFFFFF" stroke-linecap="round" stroke-linejoin="round" stroke-width="2" d="M20 2L20 8M29 5L25 9M11 5L15 9" />
  <path d="M23.172,28.828l18-18c1.105-1.105,1.105-2.895,0-4l0,0c-1.105-1.105-2.895-1.105-4,0l-18,18L23.172,28.828z" fill="#FFFFFF" />
  <path d="M25.172,34.828l11-11c1.105-1.105,1.105-2.895,0-4l0,0c-1.105-1.105-2.895-1.105-4,0l-11,11L25.172,34.828z" fill="#FFFFFF" />
  <path d="M29.172,38.828l10-10c1.105-1.105,1.105-2.895,0-4l0,0c-1.105-1.105-2.895-1.105-4,0l-10,10L29.172,38.828z" fill="#FFFFFF" />
  <path d="M33.172,42.828l9-9c1.105-1.105,1.105-2.895,0-4l0,0c-1.105-1.105-2.895-1.105-4,0l-9,9L33.172,42.828z" fill="#FFFFFF" />
  <path d="M31.148,44.852L36,40L20,24l-7,7v6l7.852,7.852C23.695,47.695,28.305,47.695,31.148,44.852z" fill="#FFFFFF" />
  <path d="M18,26l-5,11L8.657,23.975L3,18.318c0,0,0.925-0.925,1.795-1.795c1.305-1.305,6.255-0.054,8.812,2.502C15.075,20.494,18,26,18,26z" fill="#FFFFFF" />
</svg>