<svg xmlns="http://www.w3.org/2000/svg" xmlns:xlink="http://www.w3.org/1999/xlink" viewBox="0 0 26 26" fill="#FFFFFF">
  <path d="M19,13c0-0.9,0-4.1,0-5c0-3.3-2.7-6-6-6C9.7,2,7,4.7,7,8c0,0.9,0,4.1,0,5c0,0.8-5,4.8-5,6c0,1.7,4.4,3,11,3c6.6,0,11-1.3,11-3C24,17.8,19,13.8,19,13z" fill="#FFFFFF" />
  <path d="M14 1c0-.6-.4-1-1-1s-1 .4-1 1c0 .2 0 .8 0 1 0 .2 0 .8 0 1 0 .6.4 1 1 1s1-.4 1-1c0-.2 0-.8 0-1C14 1.8 14 1.2 14 1zM13 23.1c-.6 0-1.2 0-1.7 0C11.1 23.4 11 23.6 11 24c0 1.1.9 2 2 2s2-.9 2-2c0-.4-.1-.6-.3-.9C14.2 23.1 13.6 23.1 13 23.1z" fill="#FFFFFF" />
</svg>