<svg xmlns="http://www.w3.org/2000/svg" xmlns:xlink="http://www.w3.org/1999/xlink" width="26" height="26" viewBox="0 0 26 26" fill="#FFFFFF">
  <path fill="none" stroke="#FFFFFF" stroke-width="3" d="M19.5,9V7.917C19.5,4.229,17.783,1.5,13,1.5 S6.5,4.257,6.5,7.917V9" />
  <path d="M21,10H5c-1.656,0-3,1.344-3,3v10c0,1.656,1.344,3,3,3h16c1.656,0,3-1.344,3-3V13C24,11.344,22.656,10,21,10 z M7,20c-1.104,0-2-0.896-2-2c0-1.105,0.896-2,2-2s2,0.895,2,2C9,19.104,8.104,20,7,20z M13,20c-1.104,0-2-0.896-2-2 c0-1.105,0.896-2,2-2s2,0.895,2,2C15,19.104,14.104,20,13,20z M19,20c-1.104,0-2-0.896-2-2c0-1.105,0.896-2,2-2s2,0.895,2,2 C21,19.104,20.104,20,19,20z" fill="#FFFFFF" />
</svg>