<svg width="30" height="25" viewBox="0 0 22 19" fill="none" xmlns="http://www.w3.org/2000/svg">
<path d="M21.7626 9.03794C19.6518 4.01123 15.681 0.892303 11.3966 0.892303C7.11227 0.892303 3.14142 4.01123 1.0306 9.03794C0.973059 9.17317 0.943359 9.31912 0.943359 9.46666C0.943359 9.6142 0.973059 9.76016 1.0306 9.89538C3.14142 14.9221 7.11227 18.041 11.3966 18.041C15.681 18.041 19.6518 14.9221 21.7626 9.89538C21.8202 9.76016 21.8499 9.6142 21.8499 9.46666C21.8499 9.31912 21.8202 9.17317 21.7626 9.03794ZM11.3966 15.8974C8.08409 15.8974 4.9492 13.443 3.14142 9.46666C4.9492 5.4903 8.08409 3.03589 11.3966 3.03589C14.7091 3.03589 17.844 5.4903 19.6518 9.46666C17.844 13.443 14.7091 15.8974 11.3966 15.8974ZM11.3966 5.17948C10.5699 5.17948 9.76179 5.43092 9.07442 5.902C8.38705 6.37308 7.8513 7.04265 7.53494 7.82603C7.21858 8.60941 7.1358 9.47142 7.29708 10.303C7.45836 11.1347 7.85646 11.8986 8.44102 12.4982C9.02558 13.0977 9.77036 13.506 10.5812 13.6715C11.392 13.8369 12.2324 13.752 12.9962 13.4275C13.7599 13.103 14.4127 12.5535 14.872 11.8485C15.3313 11.1435 15.5765 10.3146 15.5765 9.46666C15.5765 8.32963 15.1361 7.23917 14.3522 6.43517C13.5683 5.63117 12.5052 5.17948 11.3966 5.17948ZM11.3966 11.6103C10.9833 11.6103 10.5792 11.4845 10.2355 11.249C9.89183 11.0135 9.62396 10.6787 9.46578 10.287C9.3076 9.89529 9.26621 9.46428 9.34685 9.04847C9.42749 8.63265 9.62654 8.2507 9.91882 7.95092C10.2111 7.65113 10.5835 7.44697 10.9889 7.36426C11.3943 7.28155 11.8145 7.324 12.1964 7.48624C12.5783 7.64849 12.9047 7.92324 13.1343 8.27575C13.364 8.62826 13.4865 9.0427 13.4865 9.46666C13.4865 10.0352 13.2664 10.5804 12.8744 10.9824C12.4825 11.3844 11.9509 11.6103 11.3966 11.6103Z" fill="#8692A6"/>
</svg>
