<?xml version="1.0" encoding="iso-8859-1"?>
<!-- Generator: Adobe Illustrator 18.0.0, SVG Export Plug-In . SVG Version: 6.00 Build 0)  -->
<!DOCTYPE svg PUBLIC "-//W3C//DTD SVG 1.1//EN" "http://www.w3.org/Graphics/SVG/1.1/DTD/svg11.dtd">
<svg version="1.1" id="Capa_1" xmlns="http://www.w3.org/2000/svg" xmlns:xlink="http://www.w3.org/1999/xlink" x="0px" y="0px"
	 viewBox="0 0 60 60" style="enable-background:new 0 0 60 60;" xml:space="preserve">
<g>
	<path d="M2,30c0-8.822,7.178-16,16-16h21.586l-7.293,7.293c-0.391,0.391-0.391,1.023,0,1.414C32.488,22.902,32.744,23,33,23
		s0.512-0.098,0.707-0.293l8.999-8.999c0.093-0.092,0.166-0.203,0.217-0.326c0.101-0.244,0.101-0.52,0-0.764
		c-0.051-0.123-0.124-0.233-0.217-0.326l-8.999-8.999c-0.391-0.391-1.023-0.391-1.414,0s-0.391,1.023,0,1.414L39.586,12H18
		C8.075,12,0,20.075,0,30c0,4.786,1.876,9.3,5.282,12.709c0.195,0.195,0.452,0.293,0.708,0.293s0.512-0.098,0.707-0.293
		c0.391-0.39,0.391-1.023,0-1.414C3.668,38.264,2,34.253,2,30z"/>
	<path d="M55.693,18.349c-0.358-0.421-0.991-0.472-1.409-0.112c-0.421,0.358-0.471,0.989-0.112,1.409C56.641,22.541,58,26.218,58,30
		c0,8.822-7.178,16-16,16H18.414l7.293-7.293c0.391-0.391,0.391-1.023,0-1.414s-1.023-0.391-1.414,0l-9,9
		c-0.391,0.391-0.391,1.023,0,1.414l9,9C24.488,56.902,24.744,57,25,57s0.512-0.098,0.707-0.293c0.391-0.391,0.391-1.023,0-1.414
		L18.414,48H42c9.925,0,18-8.075,18-18C60,25.743,58.471,21.604,55.693,18.349z"/>
</g>
<g>
</g>
<g>
</g>
<g>
</g>
<g>
</g>
<g>
</g>
<g>
</g>
<g>
</g>
<g>
</g>
<g>
</g>
<g>
</g>
<g>
</g>
<g>
</g>
<g>
</g>
<g>
</g>
<g>
</g>
</svg>
