<svg width="22" height="19" viewBox="0 0 22 19" fill="none" xmlns="http://www.w3.org/2000/svg">
<path d="M21.8192 9.14564C19.7084 4.11893 15.7376 1 11.4532 1C7.16891 1 3.19806 4.11893 1.08724 9.14564C1.0297 9.28087 1 9.42682 1 9.57436C1 9.7219 1.0297 9.86786 1.08724 10.0031C3.19806 15.0298 7.16891 18.1487 11.4532 18.1487C15.7376 18.1487 19.7084 15.0298 21.8192 10.0031C21.8768 9.86786 21.9065 9.7219 21.9065 9.57436C21.9065 9.42682 21.8768 9.28087 21.8192 9.14564ZM11.4532 16.0051C8.14073 16.0051 5.00584 13.5507 3.19806 9.57436C5.00584 5.598 8.14073 3.14359 11.4532 3.14359C14.7657 3.14359 17.9006 5.598 19.7084 9.57436C17.9006 13.5507 14.7657 16.0051 11.4532 16.0051ZM11.4532 5.28718C10.6265 5.28718 9.81843 5.53862 9.13106 6.0097C8.44369 6.48078 7.90794 7.15035 7.59158 7.93373C7.27522 8.71711 7.19244 9.57912 7.35372 10.4107C7.515 11.2424 7.9131 12.0063 8.49766 12.6059C9.08222 13.2054 9.827 13.6137 10.6378 13.7792C11.4486 13.9446 12.289 13.8597 13.0528 13.5352C13.8165 13.2107 14.4693 12.6612 14.9286 11.9562C15.3879 11.2512 15.6331 10.4223 15.6331 9.57436C15.6331 8.43733 15.1927 7.34687 14.4088 6.54287C13.6249 5.73887 12.5618 5.28718 11.4532 5.28718ZM11.4532 11.718C11.0399 11.718 10.6358 11.5922 10.2921 11.3567C9.94847 11.1212 9.6806 10.7864 9.52242 10.3947C9.36424 10.003 9.32285 9.57198 9.40349 9.15617C9.48413 8.74035 9.68318 8.3584 9.97546 8.05862C10.2677 7.75883 10.6401 7.55467 11.0455 7.47196C11.4509 7.38925 11.8711 7.4317 12.253 7.59394C12.6349 7.75619 12.9613 8.03094 13.1909 8.38345C13.4206 8.73596 13.5431 9.1504 13.5431 9.57436C13.5431 10.1429 13.323 10.6881 12.931 11.0901C12.5391 11.4921 12.0075 11.718 11.4532 11.718Z" fill="#8692A6"/>
<line x1="3.29289" y1="17.2929" x2="19.2929" y2="1.29289" stroke="#8692A6" stroke-width="2"/>
</svg>
